<?xml version="1.0" encoding="utf-8"?>
<svg version="1.1" xmlns:xlink="http://www.w3.org/1999/xlink" width="60px" height="60px" xmlns="http://www.w3.org/2000/svg">
  <g transform="matrix(1 0 0 1 -306 -30 )">
    <path d="M 29.8962053571428 0.438883928571428  C 13.61296875 0.438883928571428  0.290290178571468 13.7614955357143  0.290290178571468 30.0447991071429  C 0.290290178571468 46.3278348214286  13.61296875 59.6503794642857  29.8962723214286 59.6503794642857  C 46.1792410714285 59.6503794642857  59.5018526785714 46.3278348214286  59.5018526785714 30.0447991071429  C 59.5018526785714 13.7614285714286  46.1792410714285 0.438883928571428  29.8962723214286 0.438883928571428  Z M 19.3489955357143 22.6431026785715  C 19.3490625000001 17.8323214285714  19.3490625000001 9.32055803571429  30.6362276785714 9.32055803571429  C 41.9234598214286 9.32055803571429  41.9234598214286 17.8323883928571  41.9234598214286 22.6431026785715  C 41.9234598214286 27.4542857142857  37.4825223214286 36.3359598214286  30.6362276785714 36.52078125  C 23.9749553571429 36.52078125  19.3489955357143 27.6391741071428  19.3489955357143 22.6431026785715  Z M 29.8962723214286 57.9850446428572  C 21.3844419642857 57.9850446428572  13.61296875 54.0991071428572  8.43194196428567 47.9932366071428  C 9.17196428571424 46.1426785714286  10.0972098214285 44.1072991071429  11.3925669642857 42.9972321428571  C 14.16796875 40.7765625  22.4945758928571 37.0759151785714  22.4945758928571 37.0759151785714  L 27.6756026785714 47.0679910714286  L 28.60078125 44.6624330357143  L 27.1205357142857 41.7018080357143  L 30.0811607142857 38.7414508928571  L 33.0417857142858 41.7018080357143  L 31.7463616071429 44.8473883928571  L 32.4866517857143 47.2530133928572  L 37.8526339285714 37.44609375  C 37.8526339285714 37.44609375  46.1791741071428 41.1466741071428  48.95484375 43.36734375  C 50.2499330357143 44.2923214285715  51.1751785714285 45.9578571428571  51.7303125 47.4379017857143  C 46.734375 53.9142857142857  38.7778125 57.9850446428572  29.8962053571428 57.9850446428572  Z " fill-rule="nonzero" fill="#0079fe" stroke="none" transform="matrix(1 0 0 1 306 30 )" />
  </g>
</svg>